<?xml version="1.0" encoding="UTF-8"?><svg id="Layer_2" xmlns="http://www.w3.org/2000/svg" viewBox="0 0 29.84 51.28"><defs><style>.cls-1{fill:#672d21;}.cls-2{fill:#da006b;}</style></defs><g id="Layer_1-2"><rect class="cls-1" y="17.5" width="2.06" height="33.78"/><rect class="cls-1" x="4.12" y="5.15" width="2.06" height="46.13"/><rect class="cls-1" x="12.35" y="21.62" width="2.06" height="29.66"/><path class="cls-2" d="M26.75,2.55c-.8,0-1.52.3-2.07.8,0-.09.01-.17.01-.26,0-1.7-1.38-3.09-3.09-3.09s-3.09,1.38-3.09,3.09c0,.35.13.96.31,1.35.32.7.38,1.54.37,2.03-.08,2.23-1.2,2.91-2.99,3.6-4.68,1.81-7.97,6.27-7.97,11.55v29.66h2.06v-29.66c0-4.4,2.76-8.15,6.65-9.63,6.72-2.55,11.02-2.35,12.57-4.96.21-.42.33-.89.33-1.4,0-1.71-1.38-3.09-3.09-3.09Z"/></g></svg>