<svg width="21" height="21" viewBox="0 0 21 21" fill="none" xmlns="http://www.w3.org/2000/svg">
<path fill-rule="evenodd" clip-rule="evenodd" d="M13.2068 5.79303C13.3943 5.98056 13.4996 6.23487 13.4996 6.50003C13.4996 6.76519 13.3943 7.0195 13.2068 7.20703L9.91379 10.5L13.2068 13.793C13.3889 13.9816 13.4897 14.2342 13.4875 14.4964C13.4852 14.7586 13.38 15.0094 13.1946 15.1948C13.0092 15.3803 12.7584 15.4854 12.4962 15.4877C12.234 15.49 11.9814 15.3892 11.7928 15.207L7.79279 11.207C7.60532 11.0195 7.5 10.7652 7.5 10.5C7.5 10.2349 7.60532 9.98056 7.79279 9.79303L11.7928 5.79303C11.9803 5.60556 12.2346 5.50024 12.4998 5.50024C12.765 5.50024 13.0193 5.60556 13.2068 5.79303Z" fill="#9F847D"/>
</svg>
