<svg width="21" height="21" viewBox="0 0 21 21" fill="none" xmlns="http://www.w3.org/2000/svg">
<path fill-rule="evenodd" clip-rule="evenodd" d="M7.79279 15.2069C7.60532 15.0194 7.5 14.7651 7.5 14.4999C7.5 14.2348 7.60532 13.9804 7.79279 13.7929L11.0858 10.4999L7.79279 7.20692C7.61063 7.01832 7.50983 6.76571 7.51211 6.50352C7.51439 6.24132 7.61956 5.99051 7.80497 5.8051C7.99038 5.61969 8.24119 5.51452 8.50339 5.51224C8.76558 5.50997 9.01818 5.61076 9.20679 5.79292L13.2068 9.79292C13.3943 9.98045 13.4996 10.2348 13.4996 10.4999C13.4996 10.7651 13.3943 11.0194 13.2068 11.2069L9.20679 15.2069C9.01926 15.3944 8.76495 15.4997 8.49979 15.4997C8.23462 15.4997 7.98031 15.3944 7.79279 15.2069Z" fill="#3AB4A0"/>
</svg>
