<svg width="24" height="23" viewBox="0 0 24 23" fill="none" xmlns="http://www.w3.org/2000/svg">
<path fill-rule="evenodd" clip-rule="evenodd" d="M3.94922 19.55C3.94922 19.2451 4.07038 18.9525 4.28605 18.7369C4.50171 18.5212 4.79422 18.4 5.09922 18.4H18.8992C19.2042 18.4 19.4967 18.5212 19.7124 18.7369C19.9281 18.9525 20.0492 19.2451 20.0492 19.55C20.0492 19.855 19.9281 20.1476 19.7124 20.3632C19.4967 20.5789 19.2042 20.7 18.8992 20.7H5.09922C4.79422 20.7 4.50171 20.5789 4.28605 20.3632C4.07038 20.1476 3.94922 19.855 3.94922 19.55ZM7.73617 10.687C7.95183 10.4714 8.24428 10.3503 8.54922 10.3503C8.85416 10.3503 9.14661 10.4714 9.36227 10.687L10.8492 12.1739V3.45005C10.8492 3.14505 10.9704 2.85254 11.186 2.63688C11.4017 2.42121 11.6942 2.30005 11.9992 2.30005C12.3042 2.30005 12.5967 2.42121 12.8124 2.63688C13.0281 2.85254 13.1492 3.14505 13.1492 3.45005V12.1739L14.6362 10.687C14.7423 10.5772 14.8691 10.4896 15.0095 10.4293C15.1498 10.369 15.3007 10.3373 15.4534 10.336C15.6061 10.3346 15.7575 10.3637 15.8988 10.4216C16.0401 10.4794 16.1685 10.5648 16.2765 10.6727C16.3845 10.7807 16.4699 10.9091 16.5277 11.0505C16.5855 11.1918 16.6146 11.3432 16.6133 11.4959C16.612 11.6486 16.5803 11.7995 16.52 11.9398C16.4597 12.0801 16.3721 12.207 16.2623 12.3131L12.8123 15.7631C12.5966 15.9787 12.3042 16.0998 11.9992 16.0998C11.6943 16.0998 11.4018 15.9787 11.1862 15.7631L7.73617 12.3131C7.52058 12.0974 7.39946 11.805 7.39946 11.5C7.39946 11.1951 7.52058 10.9027 7.73617 10.687Z" fill="#371B15"/>
</svg>
