<svg width="25" height="25" viewBox="0 0 25 25" fill="none" xmlns="http://www.w3.org/2000/svg">
<path d="M4.5 4.49993V9.49993H5.082M5.082 9.49993C5.74585 7.85806 6.93568 6.48284 8.46503 5.58979C9.99438 4.69674 11.7768 4.33634 13.533 4.56507C15.2891 4.79379 16.9198 5.59872 18.1694 6.8537C19.419 8.10869 20.2168 9.74279 20.438 11.4999M5.082 9.49993H9.5M20.5 20.4999V15.4999H19.919M19.919 15.4999C19.2542 17.1408 18.064 18.515 16.5348 19.4072C15.0056 20.2995 13.2237 20.6594 11.4681 20.4308C9.71246 20.2022 8.0822 19.3978 6.83253 18.1437C5.58287 16.8895 4.78435 15.2564 4.562 13.4999M19.919 15.4999H15.5" stroke="#9F847D" stroke-width="2" stroke-linecap="round" stroke-linejoin="round"/>
</svg>
